# xmcd CD database file
#
# Track frame offsets:
#	150
#	15401
#	33301
#	47390
#	66022
#	78524
#	96408
#	113248
#	136110
#	159013
#	174679
#	196305
#	216634
#	230905
#	245862
#	263850
#	278966
#
# Disc length: 3962 seconds
#
# Revision: 1
# Processed by: cddbd v1.5.2PL0 Copyright (c) Steve Scherf et al.
# Submitted via: CDex 1.70beta2
#
DISCID=f10f7811
DTITLE=JT - :)
DYEAR=2011
DGENRE=Blues
TTITLE0=Uncle Kracker - You Make Me Smile
TTITLE1=Jem - Maybe I'm Amazed
TTITLE2=Jack Johnson - Sitting, Waiting, Wishing
TTITLE3=Michelle Branch and Santana - The Game of Love
TTITLE4=Queen - Crazy Little Thing Called Love
TTITLE5=Joss Stone - Some Kind of Wonderful
TTITLE6=Colin James And The Little Big Band - Surely (I Love You)
TTITLE7=Ben Harper - Gold to Me
TTITLE8=Grace Potter and the Nocturnals - Treat Me Right
TTITLE9=The Eels - Fresh Feeling
TTITLE10=Jack Johnson - Bubble Toes
TTITLE11=Ben Harper - Diamonds
TTITLE12=Norah Jones - Don't Know Why
TTITLE13=Pink - Trouble
TTITLE14=Jack Johnson - Broken
TTITLE15=The Mudmen - Kathryns Melody of Chance
TTITLE16=Amie Miriello - I Came Around
EXTD=YEAR: 2011
EXTT0=
EXTT1=
EXTT2=
EXTT3=
EXTT4=
EXTT5=
EXTT6=
EXTT7=
EXTT8=
EXTT9=
EXTT10=
EXTT11=
EXTT12=
EXTT13=
EXTT14=
EXTT15=
EXTT16=
PLAYORDER=
